<mxfile host="app.diagrams.net" modified="2024-03-11T10:10:14.067Z" agent="Mozilla/5.0 (Macintosh; Intel Mac OS X 10_15_7) AppleWebKit/537.36 (KHTML, like Gecko) Chrome/122.0.0.0 Safari/537.36" etag="al1EqdOJDbKo9bf08SXP" version="24.0.2" type="device">
  <diagram name="Page-1" id="Y8SWOVS49k64tggunQgq">
    <mxGraphModel dx="1920" dy="1121" grid="1" gridSize="10" guides="1" tooltips="1" connect="1" arrows="1" fold="1" page="1" pageScale="1" pageWidth="827" pageHeight="1169" math="0" shadow="0">
      <root>
        <mxCell id="0" />
        <mxCell id="1" parent="0" />
        <mxCell id="uMvtkGEYh9OVPjdlLgb1-1" value="REDIS&lt;div&gt;&lt;br&gt;&lt;/div&gt;" style="image;sketch=0;aspect=fixed;html=1;points=[];align=center;fontSize=12;image=img/lib/mscae/Cache_Redis_Product.svg;" vertex="1" parent="1">
          <mxGeometry x="300" y="430" width="50" height="42" as="geometry" />
        </mxCell>
        <mxCell id="uMvtkGEYh9OVPjdlLgb1-2" value="" style="outlineConnect=0;dashed=0;verticalLabelPosition=bottom;verticalAlign=top;align=center;html=1;shape=mxgraph.aws3.lambda_function;fillColor=#5294CF;gradientColor=none;" vertex="1" parent="1">
          <mxGeometry x="170" y="420" width="60" height="63" as="geometry" />
        </mxCell>
        <mxCell id="uMvtkGEYh9OVPjdlLgb1-3" value="Function CR" style="shape=note;whiteSpace=wrap;html=1;backgroundOutline=1;darkOpacity=0.05;" vertex="1" parent="1">
          <mxGeometry x="150" y="100" width="80" height="90" as="geometry" />
        </mxCell>
        <mxCell id="uMvtkGEYh9OVPjdlLgb1-4" value="ScaledJob CR" style="shape=note;whiteSpace=wrap;html=1;backgroundOutline=1;darkOpacity=0.05;" vertex="1" parent="1">
          <mxGeometry x="400" y="100" width="90" height="90" as="geometry" />
        </mxCell>
        <mxCell id="uMvtkGEYh9OVPjdlLgb1-5" value="" style="aspect=fixed;sketch=0;html=1;dashed=0;whitespace=wrap;fillColor=none;strokeColor=#666666;points=[[0.005,0.63,0],[0.1,0.2,0],[0.9,0.2,0],[0.5,0,0],[0.995,0.63,0],[0.72,0.99,0],[0.5,1,0],[0.28,0.99,0]];shape=mxgraph.kubernetes.icon2;kubernetesLabel=1;prIcon=job;fontColor=#333333;gradientColor=none;opacity=30;" vertex="1" parent="1">
          <mxGeometry x="450" y="390" width="50" height="48" as="geometry" />
        </mxCell>
        <mxCell id="uMvtkGEYh9OVPjdlLgb1-12" style="edgeStyle=orthogonalEdgeStyle;rounded=0;orthogonalLoop=1;jettySize=auto;html=1;" edge="1" parent="1" source="uMvtkGEYh9OVPjdlLgb1-7" target="uMvtkGEYh9OVPjdlLgb1-1">
          <mxGeometry relative="1" as="geometry" />
        </mxCell>
        <mxCell id="uMvtkGEYh9OVPjdlLgb1-7" value="" style="aspect=fixed;sketch=0;html=1;dashed=0;whitespace=wrap;fillColor=none;strokeColor=#666666;points=[[0.005,0.63,0],[0.1,0.2,0],[0.9,0.2,0],[0.5,0,0],[0.995,0.63,0],[0.72,0.99,0],[0.5,1,0],[0.28,0.99,0]];shape=mxgraph.kubernetes.icon2;kubernetesLabel=1;prIcon=job;fontColor=#333333;gradientColor=none;opacity=30;" vertex="1" parent="1">
          <mxGeometry x="450" y="460" width="50" height="48" as="geometry" />
        </mxCell>
        <mxCell id="uMvtkGEYh9OVPjdlLgb1-13" style="edgeStyle=orthogonalEdgeStyle;rounded=0;orthogonalLoop=1;jettySize=auto;html=1;exitX=0.005;exitY=0.63;exitDx=0;exitDy=0;exitPerimeter=0;" edge="1" parent="1" source="uMvtkGEYh9OVPjdlLgb1-8" target="uMvtkGEYh9OVPjdlLgb1-1">
          <mxGeometry relative="1" as="geometry">
            <Array as="points">
              <mxPoint x="400" y="615" />
              <mxPoint x="400" y="451" />
            </Array>
          </mxGeometry>
        </mxCell>
        <mxCell id="uMvtkGEYh9OVPjdlLgb1-14" value="POP" style="edgeLabel;html=1;align=center;verticalAlign=middle;resizable=0;points=[];" vertex="1" connectable="0" parent="uMvtkGEYh9OVPjdlLgb1-13">
          <mxGeometry x="0.734" y="-4" relative="1" as="geometry">
            <mxPoint y="13" as="offset" />
          </mxGeometry>
        </mxCell>
        <mxCell id="uMvtkGEYh9OVPjdlLgb1-8" value="" style="aspect=fixed;sketch=0;html=1;dashed=0;whitespace=wrap;fillColor=none;strokeColor=#666666;points=[[0.005,0.63,0],[0.1,0.2,0],[0.9,0.2,0],[0.5,0,0],[0.995,0.63,0],[0.72,0.99,0],[0.5,1,0],[0.28,0.99,0]];shape=mxgraph.kubernetes.icon2;kubernetesLabel=1;prIcon=job;fontColor=#333333;gradientColor=none;opacity=30;" vertex="1" parent="1">
          <mxGeometry x="450" y="585" width="50" height="48" as="geometry" />
        </mxCell>
        <mxCell id="uMvtkGEYh9OVPjdlLgb1-9" value="" style="endArrow=classic;html=1;rounded=0;entryX=-0.08;entryY=0.5;entryDx=0;entryDy=0;entryPerimeter=0;exitX=1;exitY=0.5;exitDx=0;exitDy=0;exitPerimeter=0;" edge="1" parent="1" source="uMvtkGEYh9OVPjdlLgb1-2" target="uMvtkGEYh9OVPjdlLgb1-1">
          <mxGeometry width="50" height="50" relative="1" as="geometry">
            <mxPoint x="230" y="460" as="sourcePoint" />
            <mxPoint x="280" y="410" as="targetPoint" />
          </mxGeometry>
        </mxCell>
        <mxCell id="uMvtkGEYh9OVPjdlLgb1-10" value="PUSH" style="edgeLabel;html=1;align=center;verticalAlign=middle;resizable=0;points=[];" vertex="1" connectable="0" parent="uMvtkGEYh9OVPjdlLgb1-9">
          <mxGeometry x="-0.1214" y="-1" relative="1" as="geometry">
            <mxPoint y="8" as="offset" />
          </mxGeometry>
        </mxCell>
        <mxCell id="uMvtkGEYh9OVPjdlLgb1-11" style="edgeStyle=orthogonalEdgeStyle;rounded=0;orthogonalLoop=1;jettySize=auto;html=1;entryX=1.04;entryY=0.548;entryDx=0;entryDy=0;entryPerimeter=0;" edge="1" parent="1" source="uMvtkGEYh9OVPjdlLgb1-5" target="uMvtkGEYh9OVPjdlLgb1-1">
          <mxGeometry relative="1" as="geometry" />
        </mxCell>
        <mxCell id="uMvtkGEYh9OVPjdlLgb1-18" style="edgeStyle=orthogonalEdgeStyle;rounded=0;orthogonalLoop=1;jettySize=auto;html=1;" edge="1" parent="1" source="uMvtkGEYh9OVPjdlLgb1-15" target="uMvtkGEYh9OVPjdlLgb1-4">
          <mxGeometry relative="1" as="geometry" />
        </mxCell>
        <mxCell id="uMvtkGEYh9OVPjdlLgb1-22" value="watches" style="edgeLabel;html=1;align=center;verticalAlign=middle;resizable=0;points=[];" vertex="1" connectable="0" parent="uMvtkGEYh9OVPjdlLgb1-18">
          <mxGeometry y="-1" relative="1" as="geometry">
            <mxPoint as="offset" />
          </mxGeometry>
        </mxCell>
        <mxCell id="uMvtkGEYh9OVPjdlLgb1-27" style="edgeStyle=orthogonalEdgeStyle;rounded=0;orthogonalLoop=1;jettySize=auto;html=1;" edge="1" parent="1" source="uMvtkGEYh9OVPjdlLgb1-15" target="uMvtkGEYh9OVPjdlLgb1-1">
          <mxGeometry relative="1" as="geometry" />
        </mxCell>
        <mxCell id="uMvtkGEYh9OVPjdlLgb1-28" value="watches list size (N)" style="edgeLabel;html=1;align=center;verticalAlign=middle;resizable=0;points=[];" vertex="1" connectable="0" parent="uMvtkGEYh9OVPjdlLgb1-27">
          <mxGeometry x="0.28" y="-1" relative="1" as="geometry">
            <mxPoint as="offset" />
          </mxGeometry>
        </mxCell>
        <mxCell id="uMvtkGEYh9OVPjdlLgb1-15" value="Keda" style="rounded=1;whiteSpace=wrap;html=1;fillColor=#dae8fc;strokeColor=#6c8ebf;" vertex="1" parent="1">
          <mxGeometry x="385" y="260" width="120" height="60" as="geometry" />
        </mxCell>
        <mxCell id="uMvtkGEYh9OVPjdlLgb1-17" style="edgeStyle=orthogonalEdgeStyle;rounded=0;orthogonalLoop=1;jettySize=auto;html=1;" edge="1" parent="1" source="uMvtkGEYh9OVPjdlLgb1-16" target="uMvtkGEYh9OVPjdlLgb1-3">
          <mxGeometry relative="1" as="geometry" />
        </mxCell>
        <mxCell id="uMvtkGEYh9OVPjdlLgb1-21" value="watches" style="edgeLabel;html=1;align=center;verticalAlign=middle;resizable=0;points=[];" vertex="1" connectable="0" parent="uMvtkGEYh9OVPjdlLgb1-17">
          <mxGeometry x="0.2571" y="-1" relative="1" as="geometry">
            <mxPoint as="offset" />
          </mxGeometry>
        </mxCell>
        <mxCell id="uMvtkGEYh9OVPjdlLgb1-19" style="edgeStyle=orthogonalEdgeStyle;rounded=0;orthogonalLoop=1;jettySize=auto;html=1;" edge="1" parent="1" source="uMvtkGEYh9OVPjdlLgb1-16" target="uMvtkGEYh9OVPjdlLgb1-2">
          <mxGeometry relative="1" as="geometry">
            <Array as="points">
              <mxPoint x="200" y="340" />
              <mxPoint x="200" y="340" />
            </Array>
          </mxGeometry>
        </mxCell>
        <mxCell id="uMvtkGEYh9OVPjdlLgb1-24" value="reconciles" style="edgeLabel;html=1;align=center;verticalAlign=middle;resizable=0;points=[];" vertex="1" connectable="0" parent="uMvtkGEYh9OVPjdlLgb1-19">
          <mxGeometry x="-0.34" y="2" relative="1" as="geometry">
            <mxPoint as="offset" />
          </mxGeometry>
        </mxCell>
        <mxCell id="uMvtkGEYh9OVPjdlLgb1-16" value="Serverless" style="rounded=1;whiteSpace=wrap;html=1;fillColor=#dae8fc;strokeColor=#6c8ebf;" vertex="1" parent="1">
          <mxGeometry x="130" y="260" width="120" height="60" as="geometry" />
        </mxCell>
        <mxCell id="uMvtkGEYh9OVPjdlLgb1-20" style="edgeStyle=orthogonalEdgeStyle;rounded=0;orthogonalLoop=1;jettySize=auto;html=1;entryX=0.5;entryY=0;entryDx=0;entryDy=0;entryPerimeter=0;" edge="1" parent="1" source="uMvtkGEYh9OVPjdlLgb1-15" target="uMvtkGEYh9OVPjdlLgb1-5">
          <mxGeometry relative="1" as="geometry">
            <Array as="points">
              <mxPoint x="475" y="340" />
              <mxPoint x="475" y="340" />
            </Array>
          </mxGeometry>
        </mxCell>
        <mxCell id="uMvtkGEYh9OVPjdlLgb1-23" value="scales N jobs&amp;nbsp;" style="edgeLabel;html=1;align=center;verticalAlign=middle;resizable=0;points=[];" vertex="1" connectable="0" parent="uMvtkGEYh9OVPjdlLgb1-20">
          <mxGeometry x="-0.2286" y="1" relative="1" as="geometry">
            <mxPoint as="offset" />
          </mxGeometry>
        </mxCell>
        <mxCell id="uMvtkGEYh9OVPjdlLgb1-25" value="" style="shape=flexArrow;endArrow=classic;html=1;rounded=0;" edge="1" parent="1">
          <mxGeometry width="50" height="50" relative="1" as="geometry">
            <mxPoint x="100" y="451" as="sourcePoint" />
            <mxPoint x="170" y="451" as="targetPoint" />
          </mxGeometry>
        </mxCell>
        <mxCell id="uMvtkGEYh9OVPjdlLgb1-26" value="HTTP" style="edgeLabel;html=1;align=center;verticalAlign=middle;resizable=0;points=[];" vertex="1" connectable="0" parent="uMvtkGEYh9OVPjdlLgb1-25">
          <mxGeometry x="-0.3714" y="3" relative="1" as="geometry">
            <mxPoint y="3" as="offset" />
          </mxGeometry>
        </mxCell>
        <mxCell id="uMvtkGEYh9OVPjdlLgb1-29" value="&lt;font style=&quot;font-size: 18px;&quot;&gt;&lt;b&gt;. . .&lt;/b&gt;&lt;/font&gt;" style="text;html=1;align=center;verticalAlign=middle;whiteSpace=wrap;rounded=0;" vertex="1" parent="1">
          <mxGeometry x="445" y="530" width="60" height="30" as="geometry" />
        </mxCell>
      </root>
    </mxGraphModel>
  </diagram>
</mxfile>
